<?xml version="1.0" standalone="no"?>
<!DOCTYPE svg PUBLIC "-//W3C//DTD SVG 20010904//EN"
 "http://www.w3.org/TR/2001/REC-SVG-20010904/DTD/svg10.dtd">
<svg version="1.0" xmlns="http://www.w3.org/2000/svg"
 width="700.000000pt" height="700.000000pt" viewBox="0 0 700.000000 700.000000"
 preserveAspectRatio="xMidYMid meet">
<metadata>
Created by potrace 1.11, written by Peter Selinger 2001-2013
</metadata>
<g transform="translate(0.000000,700.000000) scale(0.100000,-0.100000)"
fill="#000000" stroke="none">
<path d="M3070 6618 l0 -384 53 0 c63 0 289 -14 316 -19 11 -2 44 -6 73 -9 29
-4 64 -8 78 -11 14 -3 43 -7 65 -10 37 -4 218 -45 345 -78 207 -54 518 -185
747 -316 414 -236 793 -605 1030 -1001 195 -327 307 -662 353 -1055 9 -76 5
-456 -5 -520 -33 -210 -56 -315 -96 -445 -91 -291 -264 -616 -446 -841 -155
-191 -303 -336 -519 -508 -186 -149 -526 -336 -789 -436 -239 -91 -564 -171
-770 -190 -33 -4 -65 -8 -72 -10 -13 -4 -224 -17 -308 -19 l-50 -1 -3 -384 -2
-383 162 6 c90 4 181 9 203 11 22 2 68 7 102 10 34 3 72 8 85 10 13 2 46 6 73
10 43 5 148 23 235 39 233 45 560 144 792 240 186 77 526 251 602 309 6 4 56
37 111 74 94 62 274 196 339 253 200 174 383 363 512 530 32 41 61 77 64 80 3
3 42 59 87 125 199 296 342 599 433 916 17 57 34 118 39 134 5 17 12 46 15 65
3 19 8 46 11 60 48 227 63 390 59 665 -2 132 -5 251 -8 265 -2 14 -7 54 -11
90 -4 36 -9 74 -11 85 -2 10 -6 37 -9 60 -3 22 -8 47 -10 55 -2 8 -7 29 -9 45
-11 60 -75 305 -96 360 -4 11 -17 47 -30 80 -32 87 -33 90 -81 200 -73 169
-227 452 -251 463 -5 2 -8 7 -8 12 0 20 -179 261 -283 383 -77 89 -273 286
-357 358 -114 98 -133 114 -235 190 -349 262 -723 456 -1160 601 -153 50 -364
108 -455 124 -14 2 -35 7 -48 9 -39 9 -185 34 -237 40 -27 4 -57 8 -65 10 -8
2 -49 7 -90 10 -41 4 -91 9 -110 10 -19 2 -108 7 -197 10 l-163 7 0 -384z"/>
<path d="M2977 6234 c-1 -1 -62 -5 -136 -8 -74 -4 -137 -9 -140 -11 -3 -1 -37
-6 -76 -10 -228 -21 -637 -130 -852 -226 -23 -11 -45 -19 -48 -19 -10 0 -267
-130 -330 -167 -642 -379 -1091 -932 -1291 -1588 -74 -240 -103 -460 -99 -740
1 -126 9 -243 20 -315 62 -411 219 -790 476 -1146 112 -155 284 -341 433 -466
33 -28 65 -55 71 -61 6 -7 24 -21 40 -32 15 -11 39 -29 54 -41 14 -11 60 -43
101 -71 397 -266 834 -442 1285 -517 80 -14 116 -19 215 -31 81 -11 340 -23
358 -17 9 3 12 89 12 383 l0 379 48 1 c164 3 342 27 552 74 9 1 56 15 105 30
713 216 1249 731 1436 1380 16 55 32 120 35 145 3 25 8 48 10 51 23 39 24 443
1 574 -23 127 -24 131 -51 220 -50 165 -132 343 -222 479 -21 32 -43 66 -49
75 -5 9 -12 18 -15 21 -3 3 -23 28 -45 55 -330 415 -826 702 -1375 795 -132
22 -284 38 -382 39 l-48 1 -2 382 -3 381 -43 1 c-24 1 -44 1 -45 0z m93 -1148
l0 -386 68 -1 c37 0 74 -2 82 -3 8 -2 40 -6 70 -9 136 -15 335 -81 480 -158
141 -76 313 -216 390 -319 14 -18 30 -38 35 -44 18 -20 82 -121 105 -166 46
-90 93 -234 108 -330 9 -57 9 -270 0 -335 -9 -66 -51 -208 -83 -280 -67 -153
-201 -326 -335 -434 -25 -20 -47 -39 -50 -42 -15 -16 -110 -75 -192 -118 -179
-93 -336 -137 -570 -159 -40 -4 -81 -6 -90 -4 -17 3 -18 69 -18 1203 l0 1199
-32 1 c-43 2 -167 -8 -213 -17 -161 -30 -287 -72 -417 -136 -360 -180 -601
-491 -672 -868 -19 -96 -16 -312 4 -395 71 -296 232 -536 483 -721 146 -108
374 -205 557 -238 19 -3 46 -8 59 -11 28 -5 153 -17 196 -19 l30 -1 3 -383 2
-383 -97 6 c-119 6 -205 13 -258 21 -649 99 -1207 438 -1546 941 -110 162
-206 377 -254 568 -22 87 -26 110 -42 225 -10 72 -10 350 0 420 4 30 10 73 13
95 3 22 12 61 19 88 8 26 12 47 10 47 -2 0 14 53 36 118 145 424 429 782 825
1037 309 200 696 332 1057 361 45 3 83 7 84 8 1 0 35 2 77 4 l76 3 0 -385z"/>
</g>
</svg>
