<svg xmlns="http://www.w3.org/2000/svg" width="139" height="47" viewBox="0 0 139 47"><g><g><path fill="currentColor" d="M37.567 30.202v9.753a2.323 2.323 0 0 1-2.337 2.335h-7.988a6.983 6.983 0 0 1-6.594 4.669c-3.88 0-7.046-3.126-7.046-7.004 0-3.879 3.165-7.042 7.046-7.042 3.053 0 5.652 1.996 6.594 4.707h5.652v-7.418a9.694 9.694 0 0 0 2.336.301c.83 0 1.583-.113 2.337-.3zm75.509 2.975c.076-.565.076-.565-.489-.565-.829 0-1.658-.038-2.487 0-.151 0-.189-.038-.189-.188v-.678c0-.15.038-.188.189-.188.527.037 1.055 0 1.62 0 .151.037.188 0 .188-.189 0-.376 0-.376-.376-.376h-1.47c-.113 0-.151 0-.151-.15v-.64c0-.152.038-.227.226-.227h2.713c.189 0 .226 0 .226-.226 0-.339 0-.339-.339-.339h-2.6c-.188 0-.263-.037-.226-.226v-.564c-.037-.189.038-.226.226-.226h1.583c.151 0 .188-.038.188-.189 0-.376 0-.376-.376-.376H110.1c-.151 0-.189-.038-.189-.226v-.64c0-.15.038-.15.189-.15h2.75c.189 0 .264-.076.226-.264v-.113c.038-.151-.037-.189-.188-.189h-2.751c-.188 0-.263-.037-.226-.226v-.564c0-.189.038-.264.226-.264.528.038 1.055 0 1.545.038.189 0 .226-.038.226-.226 0-.377 0-.377-.376-.377-.49 0-.98 0-1.47.038-.113 0-.151-.038-.151-.189v-.64c0-.188.038-.226.189-.226h2.75c.151 0 .264 0 .226-.226v-.15c.038-.15-.037-.188-.188-.188h-2.751c-.188 0-.226 0-.226-.189v-.64c0-.15.038-.188.189-.188h1.582c.189 0 .226-.038.226-.188 0-.377 0-.377-.339-.377H110.1c-.151 0-.189-.038-.189-.15v-.64c0-.19.038-.227.189-.227h2.75c.189 0 .226-.037.226-.226 0-.339 0-.339-.339-.339h-2.6c-.188 0-.226-.037-.226-.226v-.602c0-.188.038-.188.189-.188h1.62c.151 0 .188-.038.188-.188 0-.377 0-.377-.376-.377H110.1c-.151 0-.189-.075-.189-.226v-.565c0-.188.038-.263.226-.263.905.037 1.809.037 2.751.037.151 0 .188-.037.188-.226 0-.339 0-.339-.339-.339-.866 0-1.771-.037-2.637 0-.151 0-.189-.075-.189-.225v-.64c0-.151.038-.189.151-.189.565.038 1.093 0 1.658.038.151 0 .188-.076.188-.226 0-.377 0-.377-.339-.377h-1.432c-.188.038-.226-.037-.226-.226v-.602c0-.15.038-.188.189-.188h2.75c.189 0 .264-.038.226-.226v-.038c0-.301 0-.301-.301-.301h-2.638c-.188 0-.263-.038-.226-.226v-.603c0-.15.038-.188.189-.188h1.62c.151 0 .188-.038.188-.188 0-.377 0-.377-.376-.377H110.1c-.151 0-.226-.037-.189-.226.038-.226-.037-.452.038-.678.075.076.151.038.226.038h19.48c.076 0 .151.038.227-.038 1.959 0 3.843.226 5.614 1.13 1.356.716 2.261 1.845 2.75 3.276.528 1.393.716 2.9.716 4.406.038 5.196 0 10.43.038 15.665 0 .112 0 .188-.188.188h-6.896c-.037 0-.037-.038-.037-.038V25.081v-4.97c0-.076.037-.189-.076-.227-.075-.376-.075-.715-.151-1.054-.188-1.017-.791-1.544-1.77-1.732a11.464 11.464 0 0 0-1.96-.15h-2.148v8.961c0 .302.038.264-.263.264h-5.991c-.226 0-.264-.038-.264-.226.038-2.26.038-4.519.038-6.74h-.038v-2.26h-1.922c-.188 0-.226.038-.226.226v18.263c0 .188-.038.264-.226.264h-6.745c-.188 0-.226-.076-.226-.226v-.527c0-.151.038-.189.189-.189h1.62c.151 0 .188-.037.188-.226 0-.339 0-.339-.339-.339h-1.507c-.113 0-.151-.037-.151-.15v-.753c0-.038-.037-.076.038-.113.038.037.113.037.151.037h2.788c.075 0 .113.038.188-.037zm-6.857-9.79v12.05c0 .187-.076.263-.264.263-3.693 0-7.348 0-11.04-.038-1.432 0-2.826-.188-4.183-.64-2.298-.753-3.654-2.335-4.22-4.632a15.225 15.225 0 0 1-.452-3.69V11.186c0-.188.075-.188.226-.188h6.745c.188 0 .226.037.226.226v14.874c0 .602 0 1.167.113 1.732.264 1.092.754 1.544 1.846 1.77.603.112 1.168.15 1.771.15h1.847c.15 0 .188-.038.188-.188v-1.28-17.02c0-.189.038-.264.226-.264h6.707c.188 0 .264.037.264.226-.038 4.066 0 8.096 0 12.162zM43.595 11.034c.038-.037.113-.037.189-.037h6.707c.188 0 .226.075.226.263v15.401c0 .528.075 1.017.226 1.544.226.678.678 1.13 1.394 1.318.603.15 1.206.226 1.809.226h2.147c.151 0 .189-.038.189-.188v-.64-17.66c0-.189.037-.264.226-.264h6.744c.189 0 .227.037.227.226v24.175c0 .3 0 .3-.264.3-3.693 0-7.348 0-11.003-.037-1.47 0-2.939-.188-4.333-.678-1.997-.715-3.353-2.07-3.956-4.104-.34-1.13-.528-2.26-.565-3.427v-.188-.188c.037-.076.037-.151.037-.226V11.035zm23.738 16.268c0-2.599-.037-5.234 0-7.87 0-1.394.226-2.787.716-4.142.679-1.921 1.997-3.088 3.881-3.728 1.168-.377 2.336-.528 3.542-.528 2.223-.037 4.484-.037 6.707-.037.15 0 .15.075.15.188v5.573c.039.15-.037.188-.187.188h-4.748c-.415 0-.83.038-1.244.113-1.13.264-1.808.98-1.997 2.184-.037.415-.075.829-.075 1.243v14.95c0 .187-.038.263-.264.263H67.56c-.188 0-.263-.038-.263-.264v-8.133h.037zM20.648 7.082c0 3.878-3.165 7.003-7.046 7.003-3.052 0-5.614-1.958-6.594-4.669H4.672V37.62h6.896a9.435 9.435 0 0 0-.302 2.335c0 .79.113 1.581.302 2.335H2.336A2.347 2.347 0 0 1 0 39.954V7.082a2.323 2.323 0 0 1 2.336-2.335h4.672C7.988 1.998 10.55.04 13.602.04c3.881 0 7.046 3.163 7.046 7.042zm-4.672 0a2.363 2.363 0 0 0-2.374-2.373c-1.28 0-2.336 1.055-2.336 2.373a2.347 2.347 0 0 0 2.336 2.334c1.32 0 2.374-1.054 2.374-2.334zm21.59 7.455c2.751.98 4.71 3.578 4.71 6.628 0 3.878-3.165 7.004-7.046 7.004a6.993 6.993 0 0 1-7.008-7.004c0-3.05 1.96-5.649 4.672-6.628v-5.12h-10.21a9.673 9.673 0 0 0 .3-2.335c0-.829-.113-1.62-.3-2.335H35.23c1.32 0 2.337 1.017 2.337 2.335zm.038 6.628a2.363 2.363 0 0 0-2.374-2.373c-1.28 0-2.336 1.055-2.336 2.373a2.347 2.347 0 0 0 2.336 2.334c1.32 0 2.374-1.054 2.374-2.334zm-14.582 18.79a2.363 2.363 0 0 0-2.374-2.372 2.363 2.363 0 0 0-2.373 2.372c0 1.28 1.055 2.335 2.373 2.335 1.32 0 2.374-1.055 2.374-2.335z"/></g></g></svg>