<svg xmlns="http://www.w3.org/2000/svg" width="94" height="94" viewBox="0 0 94 94"><path fill="currentColor" d="M7.841 78.314C3.513 78.309.005 74.805 0 70.482V7.832C.005 3.507 3.513.004 7.841 0h69.002c4.328.005 7.836 3.508 7.84 7.831v32.565a27.961 27.961 0 0 1-2.833 30.141l10.82 13.207a6.26 6.26 0 0 1-.969 8.704 6.278 6.278 0 0 1-8.734-.768L72.138 78.47a27.977 27.977 0 0 1-25.418-.156h-2.81v3.355a6.265 6.265 0 0 1 4.655 6.855A6.27 6.27 0 0 1 42.342 94a6.27 6.27 0 0 1-6.223-5.476 6.266 6.266 0 0 1 4.655-6.855v-3.355zm34.5 6.265a3.134 3.134 0 0 0-3.135 3.132 3.134 3.134 0 0 0 3.136 3.133 3.135 3.135 0 0 0 3.136-3.133 3.135 3.135 0 0 0-3.136-3.132zm-.452-9.398a28.493 28.493 0 0 1-4.59-4.699H9.408a1.567 1.567 0 1 1 0-3.132h25.776a27.941 27.941 0 0 1-2.69-6.265h-10.54a1.567 1.567 0 1 1 0-3.133h9.834a28.127 28.127 0 0 1-.425-4.699H3.136v17.23a4.702 4.702 0 0 0 4.705 4.698zM3.136 50.121h28.418c.178-1.59.493-3.162.941-4.699H9.41a1.567 1.567 0 1 1 0-3.133h24.178a28.166 28.166 0 0 1 3.712-6.265H21.955a1.567 1.567 0 1 1 0-3.132h18.166a28.352 28.352 0 0 1 6.6-4.699H3.135zM79.767 72.94a28.407 28.407 0 0 1-4.861 3.964l10.488 12.792a3.21 3.21 0 0 0 4.412.438 3.13 3.13 0 0 0 .44-4.406zm4.917-19.687c0-13.84-11.234-25.06-25.092-25.06-13.857 0-25.091 11.22-25.091 25.06 0 13.84 11.234 25.06 25.091 25.06 13.851-.016 25.075-11.226 25.092-25.06zm-12.22-25.06a28.378 28.378 0 0 1 9.083 7.379v-7.379zM7.841 3.133A4.702 4.702 0 0 0 3.136 7.83v17.23h78.411V7.83a4.702 4.702 0 0 0-4.704-4.698zm1.568 7.831a1.567 1.567 0 1 1 0-3.133h6.273a1.567 1.567 0 1 1 0 3.133zm12.546 0a1.567 1.567 0 1 1 0-3.133h53.32a1.567 1.567 0 1 1 0 3.133zM9.41 36.024a1.567 1.567 0 1 1 0-3.133h6.273a1.567 1.567 0 1 1 0 3.133zm0 25.06a1.567 1.567 0 1 1 0-3.132h6.273a1.567 1.567 0 1 1 0 3.132zm0-40.722a1.567 1.567 0 1 1 0-3.133h65.866a1.567 1.567 0 1 1 0 3.133zm72.03 30.543c1.202 11.144-6.205 21.399-17.172 23.776-10.966 2.378-21.963-3.887-25.496-14.526-.014-.031-.023-.064-.036-.097A21.698 21.698 0 0 1 40.054 43.3c.019-.047.042-.088.064-.132a21.959 21.959 0 0 1 19.474-11.842c11.223-.01 20.645 8.436 21.847 19.58zm-37.1-8.616h26.23a1.567 1.567 0 1 1 0 3.132H42.508a18.625 18.625 0 0 0-1.45 4.7h37.07c-1.534-9.033-9.362-15.648-18.535-15.664a18.796 18.796 0 0 0-15.254 7.832zM78.41 53.253H40.774c.008 1.586.22 3.165.627 4.698H70.57a1.567 1.567 0 1 1 0 3.133H42.507a18.833 18.833 0 0 0 17.085 10.964c10.389-.011 18.808-8.42 18.819-18.795z"/></svg>