<svg xmlns="http://www.w3.org/2000/svg" width="94" height="94" viewBox="0 0 94 94"><path fill="currentColor" d="M5.224 78.333c-2.967-.085-5.3-2.31-5.222-4.982V15.95c-.078-2.67 2.255-4.897 5.222-4.982h17.03C28.165 4.052 37.308 0 47 0c9.693 0 18.836 4.052 24.745 10.967h17.031c2.967.085 5.3 2.311 5.222 4.982V73.35c.078 2.671-2.255 4.897-5.222 4.982H63.742l3.481 6.267h5.887c2.884 0 5.222 2.104 5.222 4.7S75.994 94 73.11 94H20.89c-2.884 0-5.222-2.104-5.222-4.7s2.338-4.7 5.222-4.7h5.887l3.481-6.267zm67.886 9.4H20.89c-.961 0-1.74.702-1.74 1.567s.779 1.567 1.74 1.567h52.22c.961 0 1.74-.702 1.74-1.567s-.779-1.567-1.74-1.567zm-13.26-9.4h-25.7L30.67 84.6h32.662zm14.912-51.7c-.383-5.617-2.867-10.953-7.048-15.138-2.916 1.97-6.212 3.439-9.722 4.329a63.026 63.026 0 0 1 1.161 10.81zm-55.524 3.134c.386 5.618 2.873 10.953 7.057 15.137 2.913-1.97 6.206-3.437 9.713-4.327a63.026 63.026 0 0 1-1.161-10.81zm20.845-16.293c2.278.408 4.594.618 6.917.626a40.028 40.028 0 0 0 6.917-.626c-1.805-6.6-4.642-10.34-6.917-10.34-2.275 0-5.112 3.74-6.917 10.34zm.56-9.657c-4.387.927-8.457 2.802-11.86 5.461a28.008 28.008 0 0 0 7.947 3.458 27.413 27.413 0 0 1 3.913-8.92zm12.703 0l.007.001-.001-.001zm.007.001a27.415 27.415 0 0 1 3.917 8.918 28.005 28.005 0 0 0 7.936-3.458c-3.4-2.658-7.469-4.532-11.853-5.46zM39.373 16.56a59.004 59.004 0 0 0-1.045 10.074h17.34a58.984 58.984 0 0 0-1.044-10.074 44.42 44.42 0 0 1-7.624.674 44.421 44.421 0 0 1-7.628-.674zm-1.038 13.207a59.003 59.003 0 0 0 1.044 10.074 43.48 43.48 0 0 1 15.249 0 58.992 58.992 0 0 0 1.044-10.074zm-9.551 17.355c3.402 2.66 7.472 4.534 11.86 5.462a27.412 27.412 0 0 1-3.914-8.92 28.008 28.008 0 0 0-7.946 3.458zm11.299-4.195c1.805 6.6 4.642 10.34 6.917 10.34 2.275 0 5.112-3.74 6.912-10.346a38.874 38.874 0 0 0-13.835 0zm17.177.738l.01.002v-.002zm.01.002a27.417 27.417 0 0 1-3.924 8.917c4.387-.928 8.458-2.802 11.86-5.462a28.007 28.007 0 0 0-7.937-3.455zm10.444 1.239c4.18-4.185 6.664-9.52 7.046-15.137H59.152a63.015 63.015 0 0 1-1.161 10.81c3.506.89 6.8 2.357 9.713 4.327zM19.238 26.632h15.609c.074-3.625.462-7.24 1.16-10.81-3.506-.89-6.799-2.358-9.712-4.327-4.184 4.184-6.672 9.519-7.057 15.137zM3.483 73.352c-.064.936.704 1.752 1.74 1.848h83.553c1.037-.096 1.805-.912 1.74-1.849V15.95c.065-.937-.703-1.752-1.74-1.849H74.092c7.649 11.85 4.725 26.934-6.93 35.752-11.656 8.819-28.668 8.819-40.324 0C15.184 41.034 12.26 25.95 19.909 14.1H5.224c-1.037.097-1.805.912-1.74 1.849zm6.963-2.853c-.962 0-1.74-.7-1.74-1.566 0-.865.778-1.567 1.74-1.567h3.481v-7.833c0-.865.78-1.567 1.74-1.567.962 0 1.741.702 1.741 1.567v7.833h12.185V65.8c0-.866.78-1.567 1.74-1.567.962 0 1.742.701 1.742 1.567v1.566h12.184V61.1c0-.866.78-1.567 1.74-1.567.962 0 1.741.701 1.741 1.567v6.266h12.185V65.8c0-.866.78-1.567 1.74-1.567.962 0 1.742.701 1.742 1.567v1.566H76.59v-7.833c0-.865.78-1.567 1.74-1.567.962 0 1.742.702 1.742 1.567v7.833h3.48c.962 0 1.742.702 1.742 1.567s-.78 1.566-1.741 1.566zm3.481-17.232V47c0-.865.78-1.567 1.741-1.567.961 0 1.74.702 1.74 1.567v6.267c0 .865-.779 1.566-1.74 1.566s-1.74-.701-1.74-1.566zm15.666 6.266v-1.567c0-.865.78-1.566 1.741-1.566.961 0 1.74.701 1.74 1.567v1.566c0 .865-.779 1.567-1.74 1.567s-1.74-.702-1.74-1.567zm46.998-6.267V47c0-.865.78-1.567 1.741-1.567.962 0 1.74.702 1.74 1.567v6.267c0 .865-.779 1.566-1.74 1.566s-1.74-.701-1.74-1.566zm-15.666 6.267v-1.567c0-.865.78-1.566 1.74-1.566.962 0 1.741.701 1.741 1.567v1.566c0 .865-.779 1.567-1.74 1.567s-1.74-.702-1.74-1.567z"/></svg>