<svg xmlns="http://www.w3.org/2000/svg" width="94" height="94" viewBox="0 0 94 94"><path fill="currentColor" d="M93.985 46.47a9.398 9.398 0 0 1-18.65 2.096h-4.88c.018.271.04.54.04.816a11.704 11.704 0 0 1-7.79 11.106l5.455 5.455a9.455 9.455 0 1 1-2.23 2.203l-7.048-7.049H48.566v14.238a9.398 9.398 0 1 1-3.132 0V61.097H35.122l-7.048 7.049a9.298 9.298 0 1 1-2.235-2.206l5.184-5.184a10.275 10.275 0 0 1-7.518-9.97c.002-.746.082-1.49.24-2.22h-5.08a9.398 9.398 0 1 1 0-3.132h6.315a9.995 9.995 0 0 1 8.324-4.96c.237-1.286.664-2.53 1.267-3.691l-8.726-8.726a9.564 9.564 0 1 1 2.229-2.203l8.287 8.29a12.62 12.62 0 0 1 9.073-4.358V18.665a9.398 9.398 0 1 1 3.132 0V30.11a12.873 12.873 0 0 1 7.762 5.344l9.598-9.6a9.298 9.298 0 1 1 2.229 2.206l-9.644 9.644c.193-.01.384-.038.576-.038a11.434 11.434 0 0 1 10.727 7.768h5.521a9.407 9.407 0 0 1 9.257-7.832 9.398 9.398 0 0 1 9.393 8.867zM20.417 26.7c1.665 0 3.26-.667 4.43-1.851a6.265 6.265 0 1 0-8.86 0 6.227 6.227 0 0 0 4.43 1.851zM15.673 47a6.265 6.265 0 1 0-12.53 0 6.265 6.265 0 0 0 12.53 0zM47 78.327a6.265 6.265 0 1 0 0 12.53 6.265 6.265 0 0 0 0-12.53zm20.317-57.911a6.265 6.265 0 1 0 1.834-4.43 6.223 6.223 0 0 0-1.834 4.43zM47 15.673a6.265 6.265 0 1 0 0-12.53 6.265 6.265 0 0 0 0 12.53zm-22.151 53.48a6.265 6.265 0 1 0-8.861 8.86 6.422 6.422 0 0 0 8.86 0 6.265 6.265 0 0 0 0-8.86zm44.354.048a6.265 6.265 0 0 0-.049 8.811 6.41 6.41 0 0 0 8.86 0 6.265 6.265 0 0 0 0-8.86 6.265 6.265 0 0 0-8.811.05zM59.087 57.964a8.588 8.588 0 0 0 0-17.165 8 8 0 0 0-2.09.277 1.566 1.566 0 0 1-1.915-1.073A9.586 9.586 0 0 0 36.25 42.22a1.566 1.566 0 0 1-1.78 1.452 6.82 6.82 0 0 0-.913-.064 7.183 7.183 0 0 0 0 14.357zM90.857 47a6.265 6.265 0 1 0-12.53 0 6.265 6.265 0 0 0 12.53 0z"/></svg>