<svg xmlns="http://www.w3.org/2000/svg" width="94" height="94" viewBox="0 0 94 94"><path fill="currentColor" d="M89.3 4.701a4.7 4.7 0 0 1 4.7 4.7v21.933a4.7 4.7 0 0 1-4.7 4.7h-9.4v12.533c.002.33-.1.652-.293.92l-4.051 5.66A46.94 46.94 0 0 1 94 92.433C94 93.3 93.299 94 92.433 94H1.567A1.567 1.567 0 0 1 0 92.433a46.962 46.962 0 0 1 18.977-37.707L14.49 49.6a1.566 1.566 0 0 1-.389-1.033V31.254C5.795 30.42-.398 23.22.02 14.882.438 6.545 7.32 0 15.667 0c8.347 0 15.229 6.545 15.647 14.882.418 8.337-5.775 15.538-14.08 16.372v16.724l4.34 4.959a46.7 46.7 0 0 1 23.86-7.464V34.245a6.234 6.234 0 0 1-.53-11.924l-3.583-9.846c-.196.019-.387.06-.588.06a6.257 6.257 0 1 1 3.541-1.097l3.865 10.61a6.246 6.246 0 0 1 .428 12.197v11.233a46.709 46.709 0 0 1 24.44 7.833l3.76-5.247v-12.03H64.233a4.7 4.7 0 0 1-4.7-4.7V9.401a4.7 4.7 0 0 1 4.7-4.7zm-48.566 4.7a3.133 3.133 0 1 0 0-6.266 3.133 3.133 0 0 0 0 6.266zm-25.067 18.8c6.922 0 12.533-5.611 12.533-12.533S22.59 3.135 15.667 3.135 3.134 8.745 3.134 15.668C3.14 22.587 8.748 28.193 15.667 28.2zM47 48.567c-5.541 0-10.992 9.27-13.752 23.2 9 2.49 18.506 2.49 27.506 0-2.762-13.93-8.213-23.2-13.754-23.2zM32.708 74.863a109.321 109.321 0 0 0-1.342 16.004h31.268c-.053-5.36-.5-10.71-1.338-16.004a54.61 54.61 0 0 1-28.585 0zM47 31.334a3.133 3.133 0 1 0 0-6.266 3.133 3.133 0 0 0 0 6.266zM16.11 61.326a30.809 30.809 0 0 0 14.127 9.497c2.005-9.903 5.264-17.4 9.221-21.593A43.778 43.778 0 0 0 16.11 61.326zM3.167 90.866h25.066c.055-5.668.538-11.324 1.446-16.919A34.623 34.623 0 0 1 13.944 63.64 43.675 43.675 0 0 0 3.167 90.867zm87.671 0A43.675 43.675 0 0 0 80.057 63.64 34.623 34.623 0 0 1 64.32 73.947a112.465 112.465 0 0 1 1.446 16.92zM54.542 49.23c3.957 4.194 7.218 11.69 9.221 21.593a30.795 30.795 0 0 0 14.122-9.497A43.777 43.777 0 0 0 54.542 49.23zM90.867 9.401c0-.865-.702-1.566-1.567-1.566H64.233c-.865 0-1.566.701-1.566 1.566v21.933c0 .865.701 1.567 1.566 1.567H89.3c.865 0 1.567-.702 1.567-1.567zm-83.033 4.7a1.567 1.567 0 1 1 0-3.133H9.4a1.567 1.567 0 0 1 0 3.133zm7.833 0a1.567 1.567 0 1 1 0-3.133H23.5a1.567 1.567 0 0 1 0 3.133zm7.833 6.267H7.834a1.567 1.567 0 1 1 0-3.133H23.5a1.567 1.567 0 0 1 0 3.133zm43.867-4.701a1.567 1.567 0 1 1 0-3.133h1.566a1.567 1.567 0 1 1 0 3.133zm18.8-3.133a1.567 1.567 0 0 1 0 3.133H75.2a1.567 1.567 0 0 1 0-3.133zm0 6.268a1.567 1.567 0 1 1 0 3.133h-18.8a1.567 1.567 0 1 1 0-3.133zm0 6.265a1.567 1.567 0 1 1 0 3.134h-18.8a1.567 1.567 0 1 1 0-3.134z"/></svg>