<svg xmlns="http://www.w3.org/2000/svg" width="94" height="94" viewBox="0 0 94 94"><path fill="currentColor" d="M23.5 81.467a1.567 1.567 0 1 1 0 3.133h-4.7a1.567 1.567 0 0 1 0-3.133zM7.833 83.034a1.567 1.567 0 1 1 3.134 0 1.567 1.567 0 0 1-3.134 0zm4.7 0a1.567 1.567 0 1 1 3.134 0 1.567 1.567 0 0 1-3.134 0zm19.88-35.961a1.566 1.566 0 0 1 1.975 1.975l-6.423 19.718a1.567 1.567 0 0 1-2.598.627l-3.322-3.325-5.539 5.54a1.567 1.567 0 0 1-2.215 0L9.86 67.176a1.567 1.567 0 0 1 0-2.215l5.529-5.538-3.325-3.323a1.567 1.567 0 0 1 .627-2.598l19.724-6.424zm-1.957 3.938l-14.36 4.678 1.518 1.518a3.133 3.133 0 0 1 0 4.431l-4.432 4.43 2.217 2.217 4.43-4.432a3.133 3.133 0 0 1 4.43 0l1.519 1.518zm4.01-13.41v3.133a1.567 1.567 0 0 1-3.133 0v-3.133a1.567 1.567 0 0 1 3.134 0zm-10.429 4.32a1.567 1.567 0 0 1 2.216-2.216l2.215 2.215a1.567 1.567 0 0 1-2.215 2.216zm17.726 13.294a1.567 1.567 0 1 1-2.216 2.215l-2.215-2.215a1.567 1.567 0 0 1 2.215-2.216zM43.867 47a1.567 1.567 0 0 1 0 3.133h-3.134a1.567 1.567 0 0 1 0-3.133zm-6.874-3.374a1.567 1.567 0 0 1 .34-1.707l2.214-2.215a1.567 1.567 0 0 1 2.216 2.215l-2.216 2.215a1.567 1.567 0 0 1-2.554-.508zm53.874-6.45V75.2A3.133 3.133 0 0 1 94 78.334v4.7c-.007 6.053-4.913 10.96-10.967 10.966H10.967C4.913 93.993.007 89.087 0 83.034v-4.7A3.133 3.133 0 0 1 3.133 75.2V18.801a7.843 7.843 0 0 1 7.834-7.833h37.258A25.056 25.056 0 0 1 94 25.068a24.91 24.91 0 0 1-3.133 12.108zM47 25.067c0 12.113 9.82 21.933 21.933 21.933 12.114 0 21.934-9.82 21.934-21.933S81.047 3.135 68.933 3.135C56.825 3.148 47.013 12.96 47 25.068zm43.867 53.266H64.233V79.9a6.267 6.267 0 0 1-6.266 6.267H36.033a6.267 6.267 0 0 1-6.266-6.267v-1.566H3.133v4.7a7.843 7.843 0 0 0 7.834 7.833h72.066a7.843 7.843 0 0 0 7.834-7.833zM32.9 79.9a3.133 3.133 0 0 0 3.133 3.133h21.934A3.133 3.133 0 0 0 61.1 79.9v-1.566H32.9zm54.833-38.309c-8.266 9.441-22.247 11.3-32.694 4.348-10.447-6.953-14.129-20.567-8.61-31.838H10.966a4.7 4.7 0 0 0-4.7 4.7v56.4h81.466zM51.7 31.334a4.7 4.7 0 0 1 5.64-4.604l4.847-8.098a4.7 4.7 0 1 1 7.086.17l6.778 12.605a3.856 3.856 0 0 1 1.546.012l1.893-3.298a4.755 4.755 0 1 1 2.713 1.567l-1.893 3.3a4.7 4.7 0 1 1-7.017-.087l-6.777-12.605a4.7 4.7 0 0 1-.716.072c-.316 0-.63-.032-.94-.096l-4.847 8.094a4.651 4.651 0 0 1 1.087 2.968 4.7 4.7 0 0 1-9.4 0zm29.767-6.266a1.567 1.567 0 1 0 3.133 0 1.567 1.567 0 0 0-3.133 0zm-4.7 9.4a1.567 1.567 0 1 0 0 3.133 1.567 1.567 0 0 0 0-3.133zm-12.534-18.8a1.567 1.567 0 1 0 3.134 0 1.567 1.567 0 0 0-3.134 0zm-9.4 15.666a1.567 1.567 0 1 0 3.134 0 1.567 1.567 0 0 0-3.134 0z"/></svg>