<svg xmlns="http://www.w3.org/2000/svg" width="240" height="48" viewBox="0 0 240 48"><path fill="currentColor" d="M20.523 32.25c4.987 0 9.03-3.694 9.03-8.25s-4.043-8.25-9.03-8.25V10.5c8.16 0 14.776 6.044 14.776 13.5s-6.615 13.5-14.776 13.5zm0-21.75c-8.16 0-14.777 6.044-14.777 13.5s6.616 13.5 14.777 13.5v5.25C9.188 42.75 0 34.355 0 24S9.188 5.25 20.523 5.25zm0 32.25c11.334 0 20.523-8.395 20.523-18.75S31.857 5.25 20.523 5.25V0C35.03 0 46.792 10.745 46.792 24S35.03 48 20.522 48zm0-10.5c-4.987 0-9.03-3.694-9.03-8.25s4.043-8.25 9.03-8.25zm68.84.256v10.24h-5.487v-5.413h-21.54v-25.6h5.929v20.773h11.488V11.733h5.928v20.773zM94.4 11.733h5.928V28.41l12.298-16.677h5.597v25.6h-5.891v-16.64l-12.298 16.64H94.4zm41.323 15.287h-4.124v10.313h-5.928v-25.6h5.928v10.35h4.271l6.775-10.35h6.296l-8.432 12.361 8.69 13.24h-6.775zm40.998-15.287v25.6h-5.892V16.561h-8.836l-.185 5.34c-.122 3.632-.417 6.582-.883 8.85-.467 2.243-1.252 3.974-2.357 5.193-1.08 1.194-2.602 1.792-4.565 1.792-.81 0-1.792-.134-2.946-.403l.368-5.01c.319.098.675.146 1.068.146 1.424 0 2.418-.829 2.982-2.486.565-1.683.921-4.304 1.068-7.863l.368-10.387zm19.839 26.04c-2.676 0-5.093-.574-7.253-1.72-2.136-1.146-3.817-2.718-5.045-4.717-1.203-2.024-1.804-4.291-1.804-6.803 0-2.51.601-4.766 1.804-6.765 1.228-2.024 2.909-3.609 5.045-4.755 2.16-1.146 4.577-1.718 7.253-1.718s5.081.572 7.217 1.718c2.135 1.146 3.817 2.731 5.044 4.755 1.227 1.999 1.841 4.254 1.841 6.765 0 2.512-.614 4.779-1.841 6.803-1.227 1.999-2.909 3.571-5.044 4.717-2.136 1.146-4.541 1.72-7.217 1.72zm0-5.048c1.522 0 2.897-.341 4.124-1.024a7.504 7.504 0 0 0 2.872-2.925c.712-1.244 1.068-2.658 1.068-4.243 0-1.584-.356-2.999-1.068-4.242a7.254 7.254 0 0 0-2.872-2.89c-1.227-.706-2.602-1.06-4.124-1.06-1.522 0-2.896.354-4.124 1.06a7.508 7.508 0 0 0-2.909 2.89c-.687 1.243-1.03 2.658-1.03 4.242 0 1.585.343 3 1.03 4.243a7.772 7.772 0 0 0 2.909 2.925c1.228.683 2.602 1.024 4.124 1.024zM240 11.733v25.6h-5.965V26.837h-11.709v10.496h-5.964v-25.6h5.964v10.094h11.709V11.733z"/></svg>