<svg xmlns="http://www.w3.org/2000/svg" width="94" height="94" viewBox="0 0 94 94"><g><g><path fill="currentColor" d="M87.733 52.573v16.36h1.566c.866 0 1.567.702 1.567 1.567v3.133a4.7 4.7 0 0 1-4.7 4.7H54.834v4.7a4.7 4.7 0 0 1-4.7 4.7H38.569l1.567 3.134h5.298a1.567 1.567 0 0 1 0 3.133h-28.2a1.567 1.567 0 0 1 0-3.133h5.3l1.566-3.134H12.535a4.7 4.7 0 0 1-4.7-4.7v-27.71a17.014 17.014 0 0 1 7.904-31.292A18.815 18.815 0 0 1 33.904 9.26c1.295 0 2.587.138 3.853.409A22.576 22.576 0 0 1 56.291 0c10.897.114 20.225 7.847 22.355 18.535A19.821 19.821 0 0 1 94 38.007a20.09 20.09 0 0 1-6.266 14.566zm-79.043-.43a4.7 4.7 0 0 1 3.845-2.01h17.233V37.377a6.267 6.267 0 1 1 3.133 0v3.635l14.1-8.972v-5.63a6.267 6.267 0 1 1 3.133 0v6.49a1.567 1.567 0 0 1-.726 1.33L32.901 44.727v5.406h14.1v-4.7a4.7 4.7 0 0 1 4.7-4.7h10.966v-8.055a6.267 6.267 0 1 1 3.133 0v8.055h17.233a4.7 4.7 0 0 1 4.7 4.7v2.396a16.993 16.993 0 0 0 3.133-9.822A16.68 16.68 0 0 0 77.023 21.41a1.567 1.567 0 0 1-1.289-1.313c-1.439-9.66-9.677-16.848-19.443-16.964a19.489 19.489 0 0 0-16.52 9.158c-.37.583-1.08.855-1.746.669a15.355 15.355 0 0 0-4.121-.568A15.676 15.676 0 0 0 18.596 25.8a1.567 1.567 0 0 1-1.55 1.335h-.313c-7.575.078-13.658 6.273-13.598 13.849a13.944 13.944 0 0 0 5.555 11.16zm58.677-25.51a3.133 3.133 0 1 0-6.267 0 3.133 3.133 0 0 0 6.267 0zm-32.9 4.7a3.133 3.133 0 1 0-6.266 0 3.133 3.133 0 0 0 6.267 0zM51.7 20.367a3.133 3.133 0 1 0-6.266 0 3.133 3.133 0 0 0 6.267 0zM35.066 87.733h-7.463l-1.567 3.134h10.597zm16.634-32.9a1.557 1.557 0 0 0-.44-1.088l-.018-.013-.011-.019a1.566 1.566 0 0 0-1.097-.446h-37.6c-.864 0-1.566.701-1.566 1.566v28.2c0 .866.702 1.567 1.567 1.567h37.599c.865 0 1.566-.701 1.566-1.567zm36.033 17.234h-32.9V75.2h31.333c.865 0 1.567-.701 1.567-1.567zM84.6 68.933v-23.5c0-.865-.702-1.566-1.567-1.566H51.701c-.866 0-1.567.701-1.567 1.566v4.7a4.623 4.623 0 0 1 2.013.47l3.147-3.144a1.567 1.567 0 0 1 2.216 2.215l-3.146 3.146c.306.627.466 1.315.47 2.013v.918l8.292-8.292a1.567 1.567 0 0 1 2.215 2.215L54.834 60.182v8.751zm-70.378-8.8a1.567 1.567 0 0 1 .339-1.707l1.567-1.567a1.567 1.567 0 0 1 2.215 2.215l-1.567 1.567a1.567 1.567 0 0 1-2.554-.508zm9.739-3.274a1.567 1.567 0 0 1 2.215 2.215l-9.4 9.4a1.567 1.567 0 1 1-2.215-2.215z"/></g></g></svg>