<svg xmlns="http://www.w3.org/2000/svg" width="94" height="94" viewBox="0 0 94 94"><g><g><path fill="currentColor" d="M89.3 84.6a4.7 4.7 0 1 1 0 9.4H7.833A7.842 7.842 0 0 1 0 86.167V4.707a4.7 4.7 0 0 1 9.4 0V79.53l11.565-23.128a6.266 6.266 0 1 1 10.368-4.7 6.174 6.174 0 0 1-.32 1.899l10.153 7.646a6.23 6.23 0 0 1 4.272-1.708c.031 0 .06.01.09.01l.94-9.713c-13.143-1.937-22.49-13.796-21.3-27.027C26.358 9.578 37.669-.424 50.948.014c13.278.438 23.906 11.164 24.22 24.445l4.837-.423a6.252 6.252 0 1 1 .279 3.12l-5.213.456a24.907 24.907 0 0 1-4.218 11.544l13.93 13.93a4.69 4.69 0 1 1-6.631 6.635L64.219 45.789a24.924 24.924 0 0 1-14.086 4.347c-.183 0-.36-.028-.543-.028l-1.003 10.31a6.266 6.266 0 1 1-9.42 5.384 6.171 6.171 0 0 1 .324-1.896L29.339 56.26a6.175 6.175 0 0 1-5.582 1.567L10.368 84.6zm-6.267-59.528a3.133 3.133 0 1 0 6.267 0 3.133 3.133 0 0 0-6.267 0zm-14.13 16.557a25.636 25.636 0 0 1-2.202 2.202L80.37 57.5c.61.605 1.594.605 2.204 0a1.525 1.525 0 0 0 0-2.193zm-18.77 5.374c12.114 0 21.934-9.819 21.934-21.931 0-12.113-9.82-21.932-21.934-21.932C38.02 3.14 28.2 12.959 28.2 25.072c.013 12.107 9.825 21.918 21.933 21.931zM42.3 65.802a3.133 3.133 0 1 0 6.266 0 3.133 3.133 0 0 0-6.266 0zM21.933 51.703a3.133 3.133 0 1 0 6.267 0 3.133 3.133 0 0 0-6.267 0zM89.3 90.867a1.567 1.567 0 1 0 0-3.133H7.833a1.567 1.567 0 0 1-1.566-1.567V4.707a1.567 1.567 0 0 0-3.134 0v81.46a4.7 4.7 0 0 0 4.7 4.7zM50.133 43.87c-10.383 0-18.8-8.416-18.8-18.799 0-10.382 8.417-18.798 18.8-18.798 10.383 0 18.8 8.416 18.8 18.798-.01 10.378-8.421 18.788-18.8 18.8zm3.134-15.665a3.133 3.133 0 1 0-6.267 0 3.133 3.133 0 0 0 6.267 0zm-2.775 12.513a15.677 15.677 0 0 0 14.93-12.27l-9.127.792a6.25 6.25 0 0 1-5.187 5.132zm-3.13-.241l.627-6.409a6.25 6.25 0 1 1 8.027-7.947l9.773-.847c.002-.068.011-.134.011-.203 0-8.651-7.014-15.665-15.667-15.665-8.652 0-15.666 7.014-15.666 15.665a15.68 15.68 0 0 0 12.895 15.406z"/></g></g></svg>