<svg xmlns="http://www.w3.org/2000/svg" width="94" height="94" viewBox="0 0 94 94"><g><g><path fill="currentColor" d="M84.322 44.878l4.742 7.58c.156.25.239.537.239.83v20.567a6.26 6.26 0 0 1-1.566 12.32 6.26 6.26 0 0 1-1.566-12.32V53.737l-4.442-7.103a24.928 24.928 0 0 1-12.78 3.524h-.254a25.25 25.25 0 0 1-3.545 4.72l5.14 8.559c.147.243.224.522.224.806v9.612a6.26 6.26 0 0 1-1.566 12.32 6.26 6.26 0 0 1-1.566-12.32v-9.179l-4.573-7.615a24.925 24.925 0 0 1-14.214 5.537v19.081A6.26 6.26 0 0 1 47.029 94a6.26 6.26 0 0 1-1.566-12.32V62.597a24.925 24.925 0 0 1-14.215-5.537l-4.573 7.615v9.179a6.26 6.26 0 0 1-1.566 12.32 6.26 6.26 0 0 1-1.566-12.32v-9.612c.002-.282.079-.558.224-.8l5.14-8.559a25.24 25.24 0 0 1-3.544-4.726h-.254c-4.5 0-8.916-1.217-12.78-3.522l-4.442 7.101v20.118a6.26 6.26 0 0 1-1.566 12.32 6.26 6.26 0 0 1-1.566-12.32V53.288c0-.293.083-.58.238-.83l4.741-7.577a25.282 25.282 0 0 1-4.165-4.101 25.03 25.03 0 0 1-3.383-25.97A25.051 25.051 0 0 1 23.818.03a25.054 25.054 0 0 1 22.98 12.58c.074 0 .153-.01.23-.01.08 0 .157.01.23.008A25.046 25.046 0 0 1 70.217.12a25.043 25.043 0 0 1 21.578 14.742 25.021 25.021 0 0 1-7.472 30.016zM8.535 77.68a3.132 3.132 0 0 0-5.346 2.213 3.13 3.13 0 1 0 5.346-2.213zm16.574-.917a3.13 3.13 0 1 0-.001 6.262 3.13 3.13 0 0 0 .001-6.262zm43.84 0a3.13 3.13 0 1 0-.002 6.262 3.13 3.13 0 0 0 .001-6.262zm18.788 0a3.13 3.13 0 1 0-.002 6.261 3.13 3.13 0 0 0 .002-6.26zm-36.979-63.85a24.849 24.849 0 0 1 7.793 2.517 10.948 10.948 0 0 1 10.352-7.526 10.949 10.949 0 0 1 10.42 7.434 10.94 10.94 0 0 1-3.758 12.232 19.156 19.156 0 0 1 12.056 8.985 21.622 21.622 0 0 0 3.247-11.435C90.855 13.025 81.05 3.223 68.948 3.21a21.861 21.861 0 0 0-18.19 9.703zM63.57 51.972c-2.105-5.628-8.893-9.637-16.541-9.637-7.649 0-14.436 4.009-16.542 9.636a21.866 21.866 0 0 0 16.542 7.578 21.866 21.866 0 0 0 16.541-7.577zM47.03 39.204a7.827 7.827 0 0 0 7.828-7.825 7.827 7.827 0 0 0-7.828-7.825A7.827 7.827 0 0 0 39.2 31.38a7.836 7.836 0 0 0 7.829 7.825zm18.666 9.859c5.658-9.187 3.783-21.124-4.42-28.136-8.202-7.012-20.29-7.012-28.493 0s-10.078 18.949-4.42 28.136a19.16 19.16 0 0 1 12.047-8.975 10.952 10.952 0 0 1-3.769-12.22 10.96 10.96 0 0 1 10.389-7.465 10.96 10.96 0 0 1 10.388 7.464c1.5 4.46-.017 9.38-3.769 12.221a19.16 19.16 0 0 1 12.047 8.975zm-32.99-31.936a7.81 7.81 0 0 0-8.594-6.03 7.807 7.807 0 0 0-6.83 7.972 7.808 7.808 0 0 0 7.283 7.56 25.154 25.154 0 0 1 8.142-9.502zM76.78 19.07a7.805 7.805 0 0 0-6.829-7.97 7.808 7.808 0 0 0-8.593 6.027A25.154 25.154 0 0 1 69.5 26.63a7.806 7.806 0 0 0 7.28-7.56zM3.19 25.12a21.623 21.623 0 0 0 3.244 11.44 19.161 19.161 0 0 1 12.055-8.987 10.944 10.944 0 0 1-3.763-12.237A10.952 10.952 0 0 1 25.152 7.9a10.952 10.952 0 0 1 10.355 7.535 24.85 24.85 0 0 1 7.792-2.521A21.861 21.861 0 0 0 25.11 3.21c-12.1.013-21.907 9.815-21.92 21.91zm20.609 21.844a24.789 24.789 0 0 1-.584-17.057c-6.85.597-12.71 4.381-14.643 9.532A21.886 21.886 0 0 0 23.8 46.964zm23.23 37.623a3.13 3.13 0 1 0-.002 6.261 3.13 3.13 0 0 0 .002-6.261zm23.814-54.68v-.002zm0 0a24.794 24.794 0 0 1-.583 17.056 21.91 21.91 0 0 0 15.225-7.526c-1.933-5.149-7.792-8.932-14.642-9.53z"/></g></g></svg>