<svg xmlns="http://www.w3.org/2000/svg" width="94" height="94" viewBox="0 0 94 94"><g><g><path fill="currentColor" d="M87.733 37.581A6.268 6.268 0 0 1 94 43.85V87.73A6.268 6.268 0 0 1 87.733 94H6.267A6.268 6.268 0 0 1 0 87.731V43.85a6.268 6.268 0 0 1 6.267-6.269h10.026A31.349 31.349 0 0 1 29.558 5.306a31.325 31.325 0 0 1 34.885 0A31.349 31.349 0 0 1 77.706 37.58zM66.658 51.504a24.212 24.212 0 0 0-8.727-4.534 32.806 32.806 0 0 1-4.664 11.828 28.17 28.17 0 0 0 13.392-7.294zm-39.31 0a28.172 28.172 0 0 0 13.385 7.294 32.807 32.807 0 0 1-4.651-11.828 24.213 24.213 0 0 0-8.728 4.534zM75.12 29.745a28.072 28.072 0 0 0-6.343-16.325 27.538 27.538 0 0 1-10.257 5.32c.596 3.64.93 7.318.996 11.005zM54.894 46.213a40.565 40.565 0 0 0-15.788 0c1.804 8.23 4.956 13.309 7.894 13.309 2.937 0 6.09-5.08 7.894-13.309zM56.37 32.88H37.63c.053 3.435.348 6.863.885 10.257a43.704 43.704 0 0 1 16.97 0c.536-3.394.832-6.822.885-10.257zm0-3.135a72.848 72.848 0 0 0-.885-10.254c-2.792.57-5.635.854-8.485.851a42.253 42.253 0 0 1-8.485-.85 72.848 72.848 0 0 0-.885 10.253zM66.66 11.121a28.17 28.17 0 0 0-13.392-7.294 32.808 32.808 0 0 1 4.657 11.828 24.213 24.213 0 0 0 8.734-4.534zM47 3.103c-2.938 0-6.09 5.08-7.894 13.309a40.562 40.562 0 0 0 15.788 0C53.09 8.181 49.938 3.103 47 3.103zm-6.267.724a28.171 28.171 0 0 0-13.385 7.294 24.213 24.213 0 0 0 8.728 4.534 32.808 32.808 0 0 1 4.657-11.828zm-15.51 9.593a28.073 28.073 0 0 0-6.343 16.325h15.604c.067-3.687.4-7.365.996-11.005a27.538 27.538 0 0 1-10.257-5.32zM18.88 32.88a28.072 28.072 0 0 0 6.337 16.333 27.538 27.538 0 0 1 10.263-5.329 76.607 76.607 0 0 1-.996-11.004zm56.24 0H59.516a76.588 76.588 0 0 1-1.003 10.997 27.538 27.538 0 0 1 10.264 5.328A28.072 28.072 0 0 0 75.12 32.88zM3.133 87.73a3.134 3.134 0 0 0 3.134 3.135h2.437a6.206 6.206 0 0 1-.87-3.135V43.85a6.206 6.206 0 0 1 .87-3.135H6.267a3.134 3.134 0 0 0-3.134 3.135zm84.6 3.135a3.134 3.134 0 0 0 3.134-3.135v-5.59l-4.285-4.018a6.29 6.29 0 0 1-1.982-4.575V58.033a6.29 6.29 0 0 1 1.982-4.575l4.285-4.018v-5.59a3.134 3.134 0 0 0-3.134-3.135H76.89A31.484 31.484 0 0 1 59.533 60.02v18.308c0 .866.702 1.567 1.567 1.567h10.318l-2.026-2.026a1.567 1.567 0 0 1 2.216-2.216l4.7 4.702a1.568 1.568 0 0 1 0 2.216l-4.7 4.701a1.566 1.566 0 1 1-2.216-2.216l2.026-2.026H61.1a4.7 4.7 0 0 1-4.7-4.702V61.211a31.167 31.167 0 0 1-7.833 1.365v18.238l2.025-2.027a1.566 1.566 0 0 1 2.216 2.216l-4.7 4.702a1.566 1.566 0 0 1-2.216 0l-4.7-4.702a1.567 1.567 0 0 1 2.216-2.216l2.025 2.027V62.576a31.167 31.167 0 0 1-7.833-1.365v17.117a4.7 4.7 0 0 1-4.7 4.702H22.582l2.026 2.026a1.568 1.568 0 0 1-2.216 2.216l-4.7-4.701a1.568 1.568 0 0 1 0-2.216l4.7-4.702a1.566 1.566 0 0 1 2.216 2.216l-2.026 2.026H32.9c.865 0 1.567-.701 1.567-1.567V60.02A31.484 31.484 0 0 1 17.11 40.716H14.1a3.134 3.134 0 0 0-3.133 3.134V87.73a3.134 3.134 0 0 0 3.133 3.135zm3.134-37.129l-2.144 2.01a3.135 3.135 0 0 0-.99 2.286v15.515c.001.867.36 1.694.99 2.288l2.144 2.01z"/></g></g></svg>